<svg width="174" height="51" viewBox="0 0 174 51" fill="none" xmlns="http://www.w3.org/2000/svg">
<rect x="27" y="12" width="147" height="38" fill="#F2EE7D"/>
<g clip-path="url(#clip0_25_11)">
<path d="M29.9561 4.71997L29.7087 11.5914H32.2297L31.754 4.71997H29.9561Z" fill="#42436B"/>
<path d="M30.8265 7.09887C32.794 7.09887 34.3891 5.50973 34.3891 3.54943C34.3891 1.58914 32.794 0 30.8265 0C28.8589 0 27.2639 1.58914 27.2639 3.54943C27.2639 5.50973 28.8589 7.09887 30.8265 7.09887Z" fill="#42436B"/>
<path d="M51.5597 34.5797C50.6941 30.3763 55.8929 9.82373 29.7848 9.82373C3.67669 9.82373 6.53531 32.76 6.1215 35.7976C5.70769 38.84 0.385235 38.2761 0.00947607 39.9678C-0.366282 41.6596 10.5212 48.1282 16.9709 44.5456C14.0124 33.7552 14.626 24.9598 21.0329 19.3963C23.1067 22.2017 26.3221 24.2584 30.0178 25.391C33.7469 27.4287 37.8993 27.2297 42.299 25.7559C43.0267 25.5758 43.7497 25.3578 44.4584 25.1067C45.6142 31.6037 44.6914 38.0865 42.2609 44.5504C42.2609 44.5504 57.9952 44.5883 57.9952 38.8305C57.9952 36.39 52.4207 38.7879 51.555 34.5845L51.5597 34.5797Z" fill="#42436B"/>
<path d="M46.5085 33.3239C46.5085 42.6927 38.8839 50.2892 29.4804 50.2892C20.077 50.2892 12.4524 42.6927 12.4524 33.3239C12.4524 26.481 16.5191 20.5858 22.3743 17.9036C26.0178 25.9265 35.5116 27.7226 43.7545 24.0689C45.4954 26.7321 46.5085 29.9119 46.5085 33.3287V33.3239Z" fill="white" stroke="#42436B" stroke-width="3" stroke-miterlimit="10"/>
<path d="M21.0378 32.4093L24.2865 30.3384L26.7551 32.4093" stroke="#42436B" stroke-width="3" stroke-miterlimit="10"/>
<path d="M33.2522 32.4093L36.5008 30.3384L38.9694 32.4093" stroke="#42436B" stroke-width="3" stroke-miterlimit="10"/>
<path d="M12.9136 36.7548C13.7043 36.7548 14.3453 35.3185 14.3453 33.5466C14.3453 31.7748 13.7043 30.3384 12.9136 30.3384C12.1229 30.3384 11.4819 31.7748 11.4819 33.5466C11.4819 35.3185 12.1229 36.7548 12.9136 36.7548Z" fill="white"/>
<path d="M46.0091 37.3046C46.7998 37.3046 47.4408 35.8683 47.4408 34.0964C47.4408 32.3246 46.7998 30.8882 46.0091 30.8882C45.2184 30.8882 44.5774 32.3246 44.5774 34.0964C44.5774 35.8683 45.2184 37.3046 46.0091 37.3046Z" fill="white"/>
</g>
<path d="M83.272 25.368C85 25.368 86.336 25.888 87.28 26.928C88.24 27.968 88.72 29.376 88.72 31.152V39H83.416V31.824C83.416 31.248 83.24 30.8 82.888 30.48C82.552 30.144 82.096 29.976 81.52 29.976C80.928 29.976 80.464 30.144 80.128 30.48C79.792 30.8 79.624 31.248 79.624 31.824V39H74.32V31.824C74.32 31.248 74.144 30.8 73.792 30.48C73.456 30.144 73 29.976 72.424 29.976C71.832 29.976 71.368 30.144 71.032 30.48C70.696 30.8 70.528 31.248 70.528 31.824V39H65.2V25.464H70.528V27.288C70.912 26.712 71.432 26.248 72.088 25.896C72.76 25.544 73.544 25.368 74.44 25.368C75.416 25.368 76.28 25.584 77.032 26.016C77.784 26.432 78.384 27.024 78.832 27.792C79.328 27.088 79.96 26.512 80.728 26.064C81.496 25.6 82.344 25.368 83.272 25.368ZM104.132 32.112C104.132 32.48 104.108 32.832 104.06 33.168H95.4921C95.5721 34.336 96.0601 34.92 96.9561 34.92C97.5321 34.92 97.9481 34.656 98.2041 34.128H103.844C103.652 35.088 103.244 35.952 102.62 36.72C102.012 37.472 101.236 38.072 100.292 38.52C99.3641 38.952 98.3401 39.168 97.2201 39.168C95.8761 39.168 94.6761 38.888 93.6201 38.328C92.5801 37.768 91.7641 36.968 91.1721 35.928C90.5961 34.872 90.3081 33.64 90.3081 32.232C90.3081 30.824 90.5961 29.6 91.1721 28.56C91.7641 27.504 92.5801 26.696 93.6201 26.136C94.6761 25.576 95.8761 25.296 97.2201 25.296C98.5641 25.296 99.7561 25.576 100.796 26.136C101.852 26.68 102.668 27.464 103.244 28.488C103.836 29.512 104.132 30.72 104.132 32.112ZM98.7321 30.84C98.7321 30.392 98.5881 30.056 98.3001 29.832C98.0121 29.592 97.6521 29.472 97.2201 29.472C96.2761 29.472 95.7241 29.928 95.5641 30.84H98.7321ZM111.145 21.24V39H105.817V21.24H111.145ZM116.192 39.192C115.264 39.192 114.52 38.944 113.96 38.448C113.4 37.952 113.12 37.328 113.12 36.576C113.12 35.808 113.4 35.176 113.96 34.68C114.52 34.168 115.264 33.912 116.192 33.912C117.104 33.912 117.84 34.168 118.4 34.68C118.96 35.176 119.24 35.808 119.24 36.576C119.24 37.328 118.96 37.952 118.4 38.448C117.84 38.944 117.104 39.192 116.192 39.192ZM126.544 27.312C126.88 26.688 127.36 26.2 127.984 25.848C128.624 25.48 129.384 25.296 130.264 25.296C131.32 25.296 132.272 25.576 133.12 26.136C133.968 26.68 134.632 27.48 135.112 28.536C135.608 29.576 135.856 30.808 135.856 32.232C135.856 33.656 135.608 34.896 135.112 35.952C134.632 36.992 133.968 37.792 133.12 38.352C132.272 38.896 131.32 39.168 130.264 39.168C129.384 39.168 128.624 38.992 127.984 38.64C127.36 38.272 126.88 37.776 126.544 37.152V39H121.216V21.24H126.544V27.312ZM130.456 32.232C130.456 31.512 130.272 30.952 129.904 30.552C129.536 30.152 129.064 29.952 128.488 29.952C127.912 29.952 127.44 30.152 127.072 30.552C126.704 30.952 126.52 31.512 126.52 32.232C126.52 32.952 126.704 33.512 127.072 33.912C127.44 34.312 127.912 34.512 128.488 34.512C129.064 34.512 129.536 34.312 129.904 33.912C130.272 33.512 130.456 32.952 130.456 32.232ZM143.96 39.168C142.6 39.168 141.376 38.888 140.288 38.328C139.2 37.768 138.344 36.968 137.72 35.928C137.112 34.872 136.808 33.64 136.808 32.232C136.808 30.824 137.112 29.6 137.72 28.56C138.344 27.504 139.2 26.696 140.288 26.136C141.376 25.576 142.6 25.296 143.96 25.296C145.32 25.296 146.544 25.576 147.632 26.136C148.72 26.696 149.568 27.504 150.176 28.56C150.8 29.6 151.112 30.824 151.112 32.232C151.112 33.64 150.8 34.872 150.176 35.928C149.568 36.968 148.72 37.768 147.632 38.328C146.544 38.888 145.32 39.168 143.96 39.168ZM143.96 34.56C144.456 34.56 144.872 34.368 145.208 33.984C145.544 33.584 145.712 33 145.712 32.232C145.712 31.464 145.544 30.888 145.208 30.504C144.872 30.104 144.456 29.904 143.96 29.904C143.464 29.904 143.048 30.104 142.712 30.504C142.376 30.888 142.208 31.464 142.208 32.232C142.208 33 142.368 33.584 142.688 33.984C143.024 34.368 143.448 34.56 143.96 34.56ZM161.21 34.464V39H159.194C155.482 39 153.626 37.152 153.626 33.456V29.904H151.946V25.464H153.626V22.2H158.954V25.464H161.162V29.904H158.954V33.552C158.954 33.872 159.026 34.104 159.17 34.248C159.33 34.392 159.586 34.464 159.938 34.464H161.21Z" fill="#42436B"/>
<defs>
<clipPath id="clip0_25_11">
<rect width="58" height="51" fill="white"/>
</clipPath>
</defs>
</svg>
